<?xml version="1.0" encoding="utf-8"?>
<svg version="1.1" xmlns:xlink="http://www.w3.org/1999/xlink" width="15px" height="10px" preserveAspectRatio="xMinYMid meet" viewBox="1370 1145  15 8" xmlns="http://www.w3.org/2000/svg">
  <path d="M 1107 1431  L 1107 1303  A 3 3 0 0 0 1110 1300 A 3 3 0 0 0 1107 1297 L 1107 1198  A 5 5 0 0 1 1112 1193 L 1160 1193  A 3 3 0 0 1 1163 1190 A 3 3 0 0 1 1166 1193 L 1370 1193  A 5 5 0 0 0 1375 1188 L 1375 1154  A 5 5 0 0 1 1380 1149 " stroke-width="2" stroke="#0099cc" fill="none" />
  <path d="M 1378 1156.6  L 1385 1149  L 1378 1141.4  L 1378 1156.6  Z " fill-rule="nonzero" fill="#0099cc" stroke="none" />
</svg>