<?xml version="1.0" encoding="utf-8"?>
<svg version="1.1" xmlns:xlink="http://www.w3.org/1999/xlink" width="104px" height="70px" xmlns="http://www.w3.org/2000/svg">
  <g transform="matrix(1 0 0 1 -1316 -167 )">
    <path d="M 1316 167  L 1420 167  L 1420 237  L 1316 237  L 1316 167  " fill-rule="nonzero" fill="#cccccc" stroke="none" />
    <path d="M 1321 172  L 1415 172  L 1415 232  L 1321 232  L 1321 172  " fill-rule="nonzero" fill="#ffffff" stroke="none" />
    <path d="M 1375.33 188  C 1372.39 188  1370.08 185.69  1370.08 182.75  C 1370.08 179.81  1372.39 177.5  1375.33 177.5  C 1378.27 177.5  1380.58 179.81  1380.58 182.75  C 1380.58 185.69  1378.27 188  1375.33 188  " fill-rule="nonzero" fill="#cccccc" stroke="none" />
    <path d="M 1323 230  L 1323 199.2  L 1345.5 185.2  L 1377 207.384615384615  L 1395 193.6  L 1413 207.384615384615  L 1413 230  L 1323 230  " fill-rule="nonzero" fill="#169bd5" stroke="none" />
  </g>
</svg>