<?xml version="1.0" encoding="utf-8"?>
<svg version="1.1" xmlns:xlink="http://www.w3.org/1999/xlink" width="85px" height="71px" xmlns="http://www.w3.org/2000/svg">
  <g transform="matrix(1 0 0 1 -1795 -954 )">
    <path d="M 1795 954  L 1880 954  L 1880 1025  L 1795 1025  L 1795 954  " fill-rule="nonzero" fill="#cccccc" stroke="none" />
    <path d="M 1800 959  L 1875 959  L 1875 1020  L 1800 1020  L 1800 959  " fill-rule="nonzero" fill="#ffffff" stroke="none" />
    <path d="M 1844.525 975.3  C 1841.543 975.3  1839.2 972.957  1839.2 969.975  C 1839.2 966.993  1841.543 964.65  1844.525 964.65  C 1847.507 964.65  1849.85 966.993  1849.85 969.975  C 1849.85 972.957  1847.507 975.3  1844.525 975.3  " fill-rule="nonzero" fill="#cccccc" stroke="none" />
    <path d="M 1802 1018  L 1802 986.65  L 1819.75 972.4  L 1844.6 989.432941176471  L 1858.8 980.95  L 1873 989.432941176471  L 1873 1018  L 1802 1018  " fill-rule="nonzero" fill="#169bd5" stroke="none" />
  </g>
</svg>